<?xml version="1.0" encoding="utf-8"?>
<!-- Generator: Adobe Illustrator 16.0.0, SVG Export Plug-In . SVG Version: 6.00 Build 0)  -->
<!DOCTYPE svg PUBLIC "-//W3C//DTD SVG 1.1//EN" "http://www.w3.org/Graphics/SVG/1.1/DTD/svg11.dtd">
<svg version="1.1" xmlns="http://www.w3.org/2000/svg" xmlns:xlink="http://www.w3.org/1999/xlink" x="0px" y="0px" width="750px"
	 height="500px" viewBox="0 0 750 500" enable-background="new 0 0 750 500" xml:space="preserve">
<g id="BACKGROUND">
	<g>
		<rect fill="#F9F5ED" width="750" height="500"/>
		<g>
			<defs>
				<rect id="SVGID_1_" width="750" height="500"/>
			</defs>
			<clipPath id="SVGID_2_">
				<use xlink:href="#SVGID_1_"  overflow="visible"/>
			</clipPath>
			<path clip-path="url(#SVGID_2_)" fill="#E2CFAC" d="M-71.455,456.8c37.059-58.251,111.062-89.378,173.924-80.357
				c74.436,10.682,77.122,69.602,159.614,88.063c84.486,18.908,133.119-31.38,166.218-2.201
				c31.686,27.932,24.236,106.735-9.907,156.312C322.836,757.369-27.997,734.24-89.068,601.003
				C-110.682,553.848-95.34,494.343-71.455,456.8z"/>
			<path clip-path="url(#SVGID_2_)" fill="#E0CDC6" d="M320.425-132.122c37.059-58.25,111.062-89.378,173.925-80.357
				c74.437,10.682,77.121,69.602,159.613,88.063c84.486,18.908,133.12-31.38,166.22-2.201
				c31.685,27.932,24.235,106.735-9.907,156.312c-95.56,138.754-446.392,115.625-507.463-17.613
				C281.198-35.073,296.54-94.578,320.425-132.122z"/>
			<path clip-path="url(#SVGID_2_)" fill="#B78372" d="M587.916,572.382c-25.737-33.816-50.983-94.646-27.52-128.792
				c29.679-43.19,113.786-9.491,137.599-50.636c21.368-36.921-36.573-80.968-18.714-133.195
				c15.404-45.047,81.751-80.25,126.591-67.148c104.509,30.537,177.2,348.326,52.838,435.912
				C786.531,679.356,648.646,652.174,587.916,572.382z"/>
			<path clip-path="url(#SVGID_2_)" fill="#B78372" d="M-87.967,334.612c60.41,1,116.159-81.763,128.792-151.909
				C53.47,112.492,16.153,92.478,30.918,23.09c18.26-85.813,86.053-105.578,75.954-144.203
				C93.571-171.988-43.266-211.249-134.2-160.742c-113.277,62.917-117.126,243.92-77.055,354.453
				C-204.745,211.669-160.61,333.41-87.967,334.612z"/>
			<g clip-path="url(#SVGID_2_)">
				<path fill="#E2CFAC" d="M146.953,33.663c3.046,0.456,6.172-0.217,9.026-1.376c5.714-2.321,10.731-6.875,12.542-12.771
					c0.751-2.448,0.926-5.147,0.018-7.541c-1.551-4.087-5.986-6.4-10.18-6.595c-3.705-0.172-7.958,0.698-11.396,2.081
					c-2.644,1.063-4.986,2.76-6.46,5.237c-1.699,2.855-2.152,6.287-2.209,9.554c-0.043,2.5,0.143,5.05,1.577,7.188
					c1.281,1.91,3.321,3.224,5.504,3.874C145.892,33.465,146.42,33.583,146.953,33.663z"/>
				<path fill="#E2CFAC" d="M94.388,19.762c0.072,1.729,0.937,3.316,2.105,4.677c2.339,2.725,6.139,4.707,10.46,4.73
					c1.794,0.01,3.689-0.335,5.234-1.219c2.639-1.508,3.678-4.292,3.279-6.601c-0.352-2.039-1.498-4.207-2.896-5.849
					c-1.075-1.262-2.55-2.258-4.457-2.655c-2.198-0.458-4.637-0.145-6.911,0.356c-1.74,0.384-3.485,0.9-4.787,2.027
					c-1.162,1.007-1.813,2.328-1.986,3.62C94.389,19.154,94.375,19.46,94.388,19.762z"/>
				<path fill="#E2CFAC" d="M221.304,90.503c1.73-0.014,3.346-0.825,4.745-1.947c2.801-2.247,4.91-5.978,5.077-10.296
					c0.07-1.792-0.211-3.699-1.042-5.272c-1.418-2.688-4.167-3.82-6.488-3.499c-2.05,0.284-4.254,1.357-5.942,2.699
					c-1.297,1.032-2.342,2.473-2.802,4.365c-0.531,2.182-0.3,4.629,0.125,6.919c0.325,1.752,0.783,3.514,1.865,4.852
					c0.967,1.195,2.266,1.891,3.551,2.106C220.696,90.482,221.001,90.506,221.304,90.503z"/>
				<path fill="#E2CFAC" d="M108.669-3.758c1.791,0.241,3.627-0.115,5.305-0.727c3.358-1.226,6.307-3.632,7.371-6.746
					c0.442-1.292,0.544-2.719,0.01-3.983c-0.912-2.159-3.518-3.38-5.983-3.483c-2.177-0.091-4.677,0.369-6.698,1.099
					c-1.554,0.562-2.931,1.458-3.797,2.766c-0.999,1.508-1.265,3.321-1.298,5.046c-0.025,1.32,0.084,2.667,0.927,3.797
					c0.753,1.009,1.952,1.703,3.235,2.046C108.045-3.862,108.355-3.8,108.669-3.758z"/>
				<path fill="#E2CFAC" d="M190.357,47.791c1.425,1.827,3.69,2.846,5.976,3.227c3.842,0.64,7.935-0.411,10.993-2.823
					c2.998-2.365,4.956-6.002,5.287-9.805c0.19-2.193-0.302-4.162-1.917-5.719c-1.344-1.296-3.218-2.175-4.952-2.83
					c-2.649-1.001-5.565-1.288-8.208-0.113c-2.816,1.251-4.851,3.784-6.409,6.36c-1.918,3.171-3.293,6.982-1.498,10.55
					C189.834,47.044,190.077,47.432,190.357,47.791z"/>
				<path fill="#E2CFAC" d="M199.814-10.235c1.661,1.956,4.11,3.115,6.618,3.656c2.688,0.58,5.51,0.48,8.164-0.237
					c1.944-0.525,3.798-1.382,5.442-2.546c3.939-2.788,8.425-9.08,6.928-14.236c-0.825-2.84-3.738-4.105-6.429-4.544
					c-3.609-0.589-7.424-0.035-10.892,1.032c-3.443,1.06-6.944,2.751-9.422,5.434c-2.315,2.507-3.213,5.78-1.882,9.008
					C198.705-11.789,199.197-10.962,199.814-10.235z"/>
				<path fill="#E2CFAC" d="M149.767-25.223c1.243,1.593,3.077,2.537,4.954,2.977c2.013,0.473,4.125,0.392,6.112-0.192
					c1.456-0.428,2.843-1.125,4.074-2.074c2.949-2.271,6.307-7.393,5.186-11.592c-0.617-2.313-2.798-3.343-4.813-3.701
					c-2.702-0.479-5.558-0.028-8.154,0.841c-2.578,0.863-5.199,2.24-7.054,4.424c-1.733,2.042-2.406,4.707-1.409,7.335
					C148.936-26.487,149.304-25.814,149.767-25.223z"/>
				<path fill="#E2CFAC" d="M231.875,2.235c-1.95,0.604-3.563,2.034-4.743,3.7c-1.264,1.786-2.073,3.882-2.378,6.048
					c-0.223,1.587-0.175,3.211,0.163,4.778c0.81,3.753,4.011,9.001,8.252,9.518c2.336,0.284,4.172-1.452,5.334-3.284
					c1.559-2.457,2.345-5.422,2.648-8.292c0.301-2.851,0.157-5.941-1.032-8.592c-1.111-2.478-3.226-4.157-6.002-4.192
					C233.358,1.908,232.6,2.01,231.875,2.235z"/>
				<path fill="#E2CFAC" d="M261.604,38.731c-1.071-1.676-2.632-2.658-4.226-3.107c-1.708-0.481-3.493-0.375-5.167,0.263
					c-1.226,0.467-2.391,1.22-3.421,2.236c-2.466,2.434-5.245,7.894-4.247,12.332c0.55,2.445,2.406,3.516,4.114,3.875
					c2.291,0.482,4.701-0.023,6.885-0.969c2.17-0.939,4.37-2.423,5.912-4.755c1.441-2.179,1.978-5.01,1.104-7.785
					C262.322,40.063,262.002,39.354,261.604,38.731z"/>
				<path fill="#E2CFAC" d="M193.804,4.232c-1.225,0.114-2.153,0.657-2.776,1.354c-0.667,0.746-1.008,1.684-1.011,2.701
					c-0.002,0.745,0.176,1.533,0.54,2.319c0.872,1.884,3.448,4.706,6.276,5.339c1.558,0.349,2.605-0.322,3.201-1.1
					c0.8-1.043,1.047-2.402,0.985-3.759c-0.062-1.348-0.436-2.851-1.456-4.237c-0.954-1.296-2.493-2.298-4.318-2.566
					C194.747,4.209,194.259,4.189,193.804,4.232z"/>
				<path fill="#E2CFAC" d="M185.01,81.524c-1.224,0.114-2.153,0.657-2.775,1.354c-0.667,0.747-1.008,1.684-1.011,2.701
					c-0.002,0.745,0.176,1.533,0.54,2.319c0.871,1.883,3.448,4.705,6.276,5.338c1.558,0.349,2.605-0.321,3.201-1.1
					c0.799-1.043,1.046-2.402,0.985-3.759c-0.062-1.348-0.436-2.851-1.456-4.237c-0.954-1.295-2.493-2.298-4.318-2.566
					C185.954,81.501,185.465,81.481,185.01,81.524z"/>
				<path fill="#E2CFAC" d="M109.57,49.126c-1.225,0.115-2.153,0.658-2.776,1.354c-0.667,0.747-1.008,1.684-1.011,2.701
					c-0.002,0.745,0.176,1.533,0.54,2.319c0.872,1.884,3.448,4.705,6.276,5.339c1.558,0.349,2.605-0.322,3.201-1.1
					c0.8-1.043,1.047-2.402,0.985-3.759c-0.062-1.348-0.436-2.851-1.456-4.237c-0.954-1.295-2.493-2.297-4.318-2.566
					C110.513,49.103,110.025,49.083,109.57,49.126z"/>
				<path fill="#E2CFAC" d="M156.483,59.624c-0.939-1.455-2.364-2.344-3.839-2.786c-1.581-0.473-3.256-0.455-4.847,0.017
					c-1.166,0.345-2.285,0.933-3.288,1.749c-2.401,1.953-5.208,6.444-4.441,10.224c0.422,2.082,2.12,3.058,3.706,3.429
					c2.126,0.498,4.402,0.167,6.484-0.543c2.067-0.705,4.183-1.869,5.715-3.773c1.432-1.779,2.041-4.144,1.327-6.517
					C157.104,60.775,156.832,60.165,156.483,59.624z"/>
			</g>
			<g clip-path="url(#SVGID_2_)">
				<path fill="#B78372" d="M559.205,29.94c1.372-2.758,1.695-5.939,1.472-9.011c-0.447-6.151-3.233-12.328-8.284-15.867
					c-2.097-1.469-4.611-2.467-7.169-2.341c-4.366,0.216-7.933,3.722-9.411,7.652c-1.306,3.471-1.788,7.785-1.532,11.483
					c0.196,2.843,1.089,5.594,2.99,7.759c2.193,2.497,5.317,3.985,8.408,5.046c2.365,0.812,4.848,1.42,7.324,0.715
					c2.212-0.63,4.091-2.166,5.382-4.042C558.69,30.889,558.965,30.423,559.205,29.94z"/>
				<path fill="#B78372" d="M529.781,75.664c1.666,0.464,3.443,0.13,5.098-0.562c3.313-1.385,6.369-4.389,7.724-8.493
					c0.562-1.704,0.817-3.613,0.454-5.355c-0.622-2.975-2.95-4.822-5.27-5.154c-2.049-0.293-4.464,0.129-6.457,0.952
					c-1.532,0.633-2.934,1.73-3.898,3.422c-1.112,1.95-1.567,4.367-1.791,6.685c-0.171,1.773-0.218,3.593,0.453,5.178
					c0.6,1.416,1.656,2.443,2.831,3.005C529.203,75.475,529.489,75.583,529.781,75.664z"/>
				<path fill="#B78372" d="M636.192-23.274c0.52-1.65,0.246-3.437-0.391-5.114c-1.273-3.357-4.173-6.513-8.229-8.003
					c-1.685-0.619-3.584-0.938-5.338-0.633c-2.993,0.521-4.918,2.787-5.327,5.094c-0.361,2.038-0.021,4.465,0.736,6.485
					c0.581,1.552,1.631,2.99,3.289,4.011c1.911,1.177,4.312,1.712,6.621,2.014c1.767,0.23,3.583,0.338,5.19-0.279
					c1.435-0.552,2.497-1.574,3.098-2.729C635.984-22.703,636.102-22.985,636.192-23.274z"/>
				<path fill="#B78372" d="M511.807,54.829c0.781-1.629,1.009-3.487,0.943-5.271c-0.132-3.573-1.512-7.12-4.146-9.092
					c-1.094-0.819-2.419-1.355-3.787-1.237c-2.334,0.202-4.3,2.305-5.157,4.618c-0.758,2.043-1.091,4.563-1.019,6.711
					c0.055,1.651,0.483,3.237,1.461,4.464c1.127,1.415,2.77,2.227,4.4,2.791c1.249,0.431,2.563,0.742,3.897,0.289
					c1.192-0.406,2.222-1.333,2.944-2.447C511.516,55.39,511.67,55.114,511.807,54.829z"/>
				<path fill="#B78372" d="M586.021-6.997c2.178-0.792,3.845-2.634,4.912-4.69c1.793-3.458,2.055-7.676,0.702-11.328
					c-1.326-3.581-4.183-6.564-7.699-8.051c-2.027-0.857-4.053-0.996-6.031,0.061c-1.647,0.879-3.062,2.391-4.219,3.838
					c-1.769,2.212-2.939,4.897-2.637,7.774c0.322,3.064,2.105,5.781,4.075,8.057c2.426,2.802,5.627,5.285,9.575,4.677
					C585.15-6.729,585.594-6.841,586.021-6.997z"/>
				<path fill="#B78372" d="M533.734-33.876c2.372-0.978,4.229-2.95,5.518-5.169c1.38-2.378,2.155-5.094,2.291-7.839
					c0.1-2.012-0.145-4.04-0.745-5.962c-1.438-4.606-6.041-10.813-11.408-10.978c-2.957-0.091-5.058,2.29-6.305,4.715
					c-1.673,3.251-2.321,7.052-2.375,10.68c-0.053,3.603,0.478,7.455,2.266,10.638c1.671,2.975,4.509,4.838,7.989,4.567
					C531.915-33.3,532.853-33.514,533.734-33.876z"/>
				<path fill="#B78372" d="M504.053,9.117c1.898-0.692,3.361-2.146,4.359-3.796c1.069-1.769,1.644-3.804,1.7-5.874
					c0.041-1.517-0.194-3.052-0.717-4.515c-1.252-3.505-5.09-8.279-9.43-8.507c-2.391-0.125-4.043,1.632-5.004,3.438
					c-1.289,2.422-1.74,5.279-1.714,8.017c0.027,2.718,0.529,5.636,2.035,8.074c1.408,2.278,3.737,3.739,6.544,3.601
					C502.594,9.517,503.347,9.374,504.053,9.117z"/>
				<path fill="#B78372" d="M555.479-60.534c-0.026,2.042,0.836,4.017,2.058,5.653c1.309,1.753,3.054,3.168,5.021,4.126
					c1.44,0.701,3.001,1.156,4.596,1.318c3.82,0.386,9.799-1.042,11.597-4.917c0.99-2.135-0.095-4.417-1.479-6.086
					c-1.856-2.24-4.436-3.902-7.072-5.075c-2.62-1.165-5.604-1.98-8.492-1.667c-2.699,0.293-4.949,1.788-5.838,4.419
					C555.624-62.045,555.487-61.292,555.479-60.534z"/>
				<path fill="#B78372" d="M599.36-77.568c-1.924,0.502-3.34,1.685-4.258,3.062c-0.984,1.476-1.434,3.208-1.343,4.996
					c0.067,1.31,0.424,2.65,1.073,3.943c1.555,3.096,5.893,7.422,10.423,7.84c2.495,0.23,4.085-1.206,4.954-2.72
					c1.164-2.03,1.426-4.479,1.2-6.849c-0.225-2.354-0.959-4.904-2.701-7.09c-1.63-2.042-4.157-3.425-7.066-3.449
					C600.849-77.84,600.075-77.755,599.36-77.568z"/>
				<path fill="#B78372" d="M545.646-23.7c-0.269,1.2-0.038,2.251,0.433,3.058c0.504,0.865,1.291,1.478,2.258,1.794
					c0.708,0.232,1.513,0.305,2.373,0.201c2.06-0.249,5.538-1.83,7.013-4.326c0.813-1.375,0.497-2.577-0.06-3.384
					c-0.746-1.082-1.963-1.736-3.272-2.095c-1.301-0.357-2.847-0.464-4.479,0.08c-1.527,0.507-2.954,1.664-3.772,3.317
					C545.914-24.604,545.745-24.146,545.646-23.7z"/>
				<path fill="#B78372" d="M616.465,8.485c-0.269,1.2-0.038,2.251,0.433,3.058c0.505,0.865,1.292,1.478,2.258,1.794
					c0.708,0.232,1.513,0.305,2.373,0.201c2.061-0.249,5.538-1.83,7.013-4.326c0.813-1.375,0.497-2.577-0.06-3.384
					c-0.746-1.082-1.963-1.736-3.272-2.095c-1.301-0.357-2.847-0.464-4.479,0.08c-1.526,0.508-2.954,1.664-3.772,3.317
					C616.733,7.581,616.564,8.04,616.465,8.485z"/>
				<path fill="#B78372" d="M562.395,70.27c-0.269,1.2-0.038,2.251,0.433,3.058c0.505,0.865,1.292,1.478,2.258,1.794
					c0.708,0.232,1.513,0.305,2.373,0.201c2.061-0.249,5.538-1.83,7.013-4.326c0.813-1.375,0.497-2.578-0.06-3.384
					c-0.746-1.082-1.963-1.736-3.272-2.095c-1.301-0.357-2.847-0.464-4.479,0.079c-1.526,0.508-2.954,1.664-3.772,3.317
					C562.663,69.365,562.494,69.824,562.395,70.27z"/>
				<path fill="#B78372" d="M586.84,28.875c-1.674,0.445-2.959,1.526-3.834,2.793c-0.938,1.358-1.437,2.958-1.479,4.617
					c-0.031,1.215,0.184,2.461,0.65,3.666c1.118,2.887,4.525,6.941,8.357,7.376c2.111,0.24,3.563-1.075,4.404-2.469
					c1.129-1.87,1.516-4.137,1.481-6.336c-0.033-2.184-0.488-4.555-1.828-6.6c-1.251-1.91-3.313-3.218-5.79-3.271
					C588.126,28.639,587.461,28.71,586.84,28.875z"/>
			</g>
			<path clip-path="url(#SVGID_2_)" fill="#B78372" d="M891.45,166.738c-52.632-30.339-118.485-41.413-175.867-17.951
				c-25.495,10.425-48.343,27.262-64.653,49.572c-14.835,20.293-24.322,43.875-32.581,67.448
				c-16.526,47.175-29.528,101.144-72.814,131.589c-24.523,17.249-54.173,25.22-83.104,31.465
				c-29.847,6.442-60.706,11.607-86.751,28.577c-41.975,27.348-67.973,77.908-65.421,127.975c0.308,6.03,1.112,12.029,2.271,17.953
				c0.108,0.552,1.075,0.381,0.976-0.179c-8.935-50.352,12.324-104.14,51.89-136.192c10.222-8.281,21.607-14.996,33.813-19.906
				c15.071-6.063,30.956-9.659,46.822-12.937c28.813-5.951,58.099-11.622,84.498-25.193c23.188-11.92,41.434-30.027,54.423-52.534
				c12.306-21.324,20.096-44.876,27.767-68.157c7.807-23.694,15.386-47.69,27.257-69.739c12.95-24.053,31.378-44.072,54.981-57.999
				c24.866-14.672,53.59-22.33,82.401-22.906c31.956-0.638,63.656,7.047,92.729,20.044c7.052,3.152,14.008,6.519,20.805,10.188
				C891.602,168.24,892.145,167.138,891.45,166.738z"/>
			<path clip-path="url(#SVGID_2_)" fill="#774436" d="M723.542-81.838c-0.086-1.396-2.255-1.284-2.169,0.114
				c2.277,36.982-4.716,75.966-26.463,106.67c-9.522,13.443-21.646,25.093-35.694,33.73c-11.986,7.37-25.808,12.838-39.932,14.535
				c2.236-5.046,3.499-10.52,3.396-16.383c-0.141-8.005-2.911-16.024-8.606-21.774c-4.959-5.007-12.031-7.289-19.001-6.847
				c-6.569,0.417-13.129,3.357-16.87,8.937c-4.349,6.485-3.703,14.912-0.303,21.647c7.29,14.435,23.428,17.701,38.382,16.55
				c-0.339,0.645-0.689,1.28-1.06,1.894c-8.687,14.385-24.605,24.2-40.001,30.017c-29.037,10.972-66.285,9.479-89.097-13.876
				c-2.342-2.398-4.531-5.119-6.458-8.057c0.829-0.651,1.647-1.317,2.449-2.005c6.132-5.257,11.351-11.711,14.428-19.229
				c2.704-6.606,4.928-16.081,0.382-22.42c-4.61-6.431-13.179-4.294-18.338,0.171c-5.996,5.19-8.309,13.569-8.081,21.279
				c0.232,7.867,2.823,15.266,6.906,21.829c-5.145,3.801-10.814,6.935-16.54,9.438c-16.923,7.4-36.714,11.341-55.114,8.705
				c-16.676-2.389-32.69-11.301-41.147-26.267c-2.178-3.854-3.614-7.985-4.354-12.194c6.205-1.831,12.144-4.43,17.504-7.751
				c6.942-4.302,14.625-10.461,17.889-18.183c2.416-5.716,2.563-14.493-5.17-15.839c-7.354-1.28-15.557,3.191-20.729,8.042
				c-5.623,5.272-9.475,12.422-11.067,19.943c-0.885,4.177-0.979,8.328-0.42,12.357c-3.893,1.038-7.827,1.779-11.699,2.2
				c-17.792,1.933-36.412-2.814-48.024-17.164c-11.648-14.394-14.561-33.681-12.655-51.643c1.057-9.967,3.457-19.723,6.282-29.32
				c0.151-0.513-0.656-0.673-0.811-0.168c-6.152,20.067-10.643,41.96-4.308,62.561c2.604,8.467,6.919,16.484,13.065,22.909
				c6.39,6.68,14.681,11.121,23.625,13.312c11.218,2.748,23.441,2.318,34.848-0.762c2.146,11.179,9.272,21.288,18.487,28.224
				c16.144,12.151,37.092,14.066,56.511,10.825c15.827-2.641,31.777-8.124,44.729-17.826c4.842,7.266,11.507,13.433,18.776,17.963
				c14.498,9.035,31.978,12.361,48.889,11.292c17.413-1.101,34.552-6.76,49.205-16.229c9.397-6.073,18.173-14.259,23.181-24.213
				c2.536-0.265,5.024-0.646,7.413-1.117c17.673-3.488,34.172-11.934,48.014-23.369c30.634-25.307,46.283-63.557,49.496-102.529
				C724.109-61.845,724.157-71.844,723.542-81.838z M368.507,34.41c4.851-5.552,12.103-10.045,19.675-10.136
				c10.47-0.126,7.648,12.271,3.569,17.773c-7.603,10.255-19.39,17.06-31.788,20.672C358.726,52.7,361.529,42.397,368.507,34.41z
				 M475.172,48.35c3.256-6.297,13.165-13.529,19.723-7.319c6.004,5.686,2.788,16.701-0.079,23.185
				c-3.497,7.906-9.245,14.42-16.038,19.701C472.201,73.18,469.24,59.825,475.172,48.35z M611.298,73.77
				c-9,0.131-18.708-1.782-25.638-7.903c-5.863-5.179-9.838-13.412-8.459-21.332c2.574-14.787,21.839-18.585,32.925-10.835
				c12.646,8.84,13.063,26.701,7.095,39.741C615.249,73.625,613.273,73.741,611.298,73.77z"/>
			<path clip-path="url(#SVGID_2_)" fill="#B78372" d="M210.063,397.843c1.938-0.873,3.877-1.747,5.816-2.62
				c3.584-1.614,7.169-3.229,10.689-4.978c28.783-14.295,52.42-37.05,74.312-60.579c-0.302,0.066-0.604,0.135-0.906,0.203
				c-27.166,6.18-52.638,20.642-70.614,41.92c-5.567,6.591-10.432,13.815-16.695,19.749c-14.451,13.692-34.901,19.24-50.41,31.721
				c10.269-13.303,14.955-30.092,17.448-46.71c2.493-16.619,3.026-33.512,6.137-50.026c-0.094,0.5-1.156,1.368-1.492,1.775
				c-0.581,0.704-1.155,1.415-1.72,2.132c-1.088,1.378-2.147,2.778-3.177,4.2c-2.06,2.843-4.003,5.771-5.825,8.771
				c-3.646,6.003-6.81,12.297-9.466,18.799c-5.313,13.005-8.597,26.843-9.641,40.854c-0.395,5.295-0.237,10.609,0.028,15.906
				c0.067,1.339,0.141,2.677,0.214,4.015c0.035,0.643,0.07,1.285,0.104,1.928c0.034,0.648,0.196,1.35,0.033,1.988
				c-0.104,0.41-0.34,0.773-0.595,1.111c-1.103,1.459-2.635,2.364-4.118,3.383c-1.73,1.188-3.459,2.379-5.18,3.581
				c-1.72,1.203-3.432,2.418-5.127,3.655c-1.187,0.866-2.366,1.743-3.535,2.633c-2.975,2.196-5.926,4.425-8.851,6.687
				c-2.853,2.206-5.627,5.017-8.697,6.888c-6.54,5.306-12.932,10.796-19.18,16.444c6.323-12.641,11.155-25.979,14.913-39.599
				c4.129-14.965,7.025-30.25,9.495-45.566c1.404-8.704,2.545-17.447,3.931-26.152c0.103-0.649-0.692-0.858-1.028-0.356
				c-8.699,12.945-15.452,27.398-20.517,42.123c-5.146,14.957-8.565,30.533-9.926,46.298c-0.751,8.696-1.034,17.58-0.272,26.286
				c-0.471,0-0.696,0.354-0.7,0.727c-10.665,9.884-20.859,20.273-30.439,31.215c-3.501,3.999-6.908,8.084-10.24,12.229
				c-0.033-0.005-0.066,0.002-0.094,0.036c-0.199,0.24-0.396,0.482-0.592,0.725c0.009-0.123,0.02-0.245,0.028-0.368
				c7.578-15.158,13.613-31,18.457-47.245c5.41-18.144,9.479-36.657,13.056-55.239c2.012-10.451,3.839-20.935,5.812-31.392
				c0.1-0.527-0.654-1.011-1.01-0.512c-10.753,15.097-20.219,31.336-27.383,48.445c-7.286,17.4-11.761,35.717-12.477,54.598
				c-0.432,11.397,0.071,22.878,1.041,34.243c-0.092,0.181-0.184,0.361-0.275,0.542c-0.02,0.018-0.041,0.034-0.061,0.051
				c-0.086,0.075-0.11,0.17-0.099,0.264c-0.073,0.144-0.144,0.287-0.225,0.452c-4.169,5.156-8.238,10.396-12.146,15.753
				c-5.009,6.866-9.458,14.194-13.7,21.552c-2.429,4.212-4.853,8.482-6.875,12.906c-0.155,0.339,0.024,0.622,0.28,0.733
				c-0.074,0.144-0.152,0.284-0.226,0.427c-0.069,0.135,0.137,0.237,0.21,0.105c0.09-0.164,0.185-0.325,0.276-0.488
				c0.17-0.008,0.339-0.086,0.452-0.28c2.712-4.695,5.311-9.445,7.997-14.148c7.45-12.098,15.589-23.775,24.333-34.975
				c0.054,0,0.104,0.012,0.161,0c16.522-3.321,33.317-4.824,49.999-7.081c8.252-1.115,16.488-2.423,24.617-4.246
				c8.115-1.821,15.996-4.3,23.816-7.114c8.815-3.172,17.657-6.482,26.952-7.943c0.786-0.124,0.879-1.137,0.104-1.376
				c-17.479-5.386-36.03-7.213-54.228-5.319c-16.936,1.762-33.471,6.897-48.499,14.889c-6.049,3.217-11.813,6.915-17.248,11.063
				c1.065-1.309,2.134-2.613,3.219-3.905c11.221-13.354,23.357-25.925,36.177-37.754c9.314-0.097,18.641-0.813,27.937-1.363
				c9.232-0.545,18.46-1.169,27.673-1.985c18.342-1.625,36.645-4.049,54.599-8.206c10.327-2.392,20.385-5.807,30.733-8.104
				c0.634-0.141,0.725-1.186,0.11-1.423c-17.169-6.627-35.999-8.256-54.24-6.873c-18.95,1.438-37.453,6.342-55.293,12.729
				c-8.952,3.206-17.77,6.777-26.462,10.63c3.746-3.351,7.532-6.656,11.384-9.881c6.279-5.258,12.695-10.353,19.229-15.29
				c3.268-2.469,6.565-4.898,9.89-7.29c3.301-2.373,6.901-4.508,10.06-7.06c3.563-2.88,7.739-2.837,12.187-2.592
				c20.899,1.15,41.887,1.565,62.74-0.243c17.363-1.505,34.839-4.547,52.107-2.194c-0.062-2.979-3.075-4.922-5.774-6.184
				c-17.019-7.957-36.151-10.935-54.909-9.879c-18.758,1.057-37.164,6.049-54.47,13.359c13.367-9.551,27.644-17.827,42.575-24.68
				C207.853,398.838,208.958,398.341,210.063,397.843z M213.577,393.826c2.492-2.226,4.385-4.931,6.249-7.68
				c3.466-5.115,7.196-10.036,11.301-14.659c16.106-18.135,37.345-31.664,60.62-38.52c2.225-0.655,4.472-1.23,6.728-1.765
				c-4.587,4.694-9.102,9.449-13.813,14.026c-5.156,5.011-10.502,9.821-15.928,14.536c-10.654,9.257-21.989,17.877-34.328,24.777
				c-4.999,2.796-10.184,5.315-15.505,7.475c1.764-1.103,3.497-2.257,5.213-3.426c4.191-2.856,8.242-5.91,12.218-9.058
				c8.16-6.458,16.069-13.235,23.953-20.025c4.754-4.095,9.512-8.198,14.179-12.393c0.156-0.14-0.074-0.414-0.24-0.283
				c-8.533,6.723-16.915,13.661-25.221,20.661c-7.707,6.495-15.459,12.942-23.67,18.797c-3.872,2.761-7.905,5.25-11.909,7.8
				c-0.1,0.034-0.199,0.073-0.298,0.107C213.274,394.071,213.431,393.956,213.577,393.826z M55.143,462.609
				c3.8-18.021,10.964-35.158,19.862-51.23c4.562-8.24,9.629-16.15,14.891-23.951c-2.974,17.642-6.292,35.258-10.262,52.701
				c-4.174,18.34-9.195,36.526-15.898,54.116c-2.854,7.49-5.953,14.858-9.401,22.078c0.115-1.959,0.217-3.919,0.373-5.871
				c0.297-3.73,0.642-7.457,1.052-11.177c0.829-7.513,1.92-14.991,3.299-22.423c2.741-14.771,6.65-29.348,11.789-43.468
				c2.865-7.872,6.219-15.541,9.612-23.196c0.102-0.229-0.229-0.397-0.349-0.175c-7.129,13.245-12.257,27.715-16.376,42.153
				c-4.14,14.51-7.113,29.354-9.158,44.3c-0.579,4.229-1.083,8.471-1.498,12.719c-0.155,1.586-0.318,3.182-0.468,4.78
				c-0.347-7.274-0.702-14.546-0.604-21.837C52.138,482.205,53.094,472.326,55.143,462.609z M94.896,498.897
				c16.758-5.658,34.714-7.955,52.352-6.52c9.113,0.741,18.149,2.429,26.916,5.026c-7.073,1.392-13.913,3.714-20.695,6.149
				c-7.876,2.827-15.733,5.609-23.878,7.578c-16.515,3.992-33.459,5.569-50.283,7.666c-8.022,0.999-16.033,2.124-23.975,3.64
				c9.583-5.267,20.194-8.466,30.669-11.468c11.749-3.368,23.836-5.575,35.898-7.478c6.812-1.075,13.68-1.818,20.481-2.939
				c0.165-0.027,0.161-0.279-0.014-0.265c-6.22,0.497-12.441,1.439-18.619,2.312c-6.07,0.858-12.125,1.815-18.15,2.951
				c-12.153,2.292-24.394,5.008-36.078,9.109c-5.435,1.908-11.186,3.927-15.747,7.557c0.069-0.098,0.124-0.211,0.139-0.355
				c0.005-0.053,0.008-0.105,0.014-0.158c0.327-0.407,0.652-0.816,0.979-1.225C66.964,511.183,80.458,503.773,94.896,498.897z
				 M98.863,465.625c-0.021-2.943,0.067-5.888,0.254-8.825c0.381-5.974,1.187-11.921,2.307-17.8
				c2.198-11.546,5.575-22.811,9.496-33.88c2.24-6.323,4.572-12.616,7.086-18.836c0.026-0.064-0.069-0.114-0.098-0.049
				c-4.813,10.823-9.442,21.694-12.998,33.008c-3.268,10.398-5.746,21.049-6.956,31.884c0.004-0.058,0.005-0.114,0.009-0.172
				c0.505-7.784,1.496-15.547,2.93-23.214c2.874-15.368,7.676-30.338,14.244-44.526c3.35-7.238,7.24-14.149,11.41-20.931
				c-1.87,14.479-4.152,28.973-7.001,43.284c-3.008,15.105-6.793,30.1-12.137,44.56c-2.439,6.6-5.243,13.057-8.376,19.354
				C98.96,468.189,98.872,466.897,98.863,465.625z M151.672,454.564c17.997-4.65,36.709-7.033,55.282-5.283
				c9.494,0.895,18.779,2.922,27.763,6.063c-8.227,2.071-16.282,4.797-24.521,6.837c-9.042,2.238-18.196,3.995-27.403,5.399
				c-18.191,2.773-36.553,4.201-54.911,5.307c-8.351,0.503-16.754,1.19-25.139,1.37c4.987-1.066,9.939-2.411,14.906-3.491
				c6.741-1.466,13.507-2.811,20.285-4.094c13.751-2.604,27.588-4.73,41.474-6.475c7.736-0.973,15.499-1.639,23.248-2.493
				c0.268-0.029,0.251-0.436-0.022-0.422c-6.964,0.358-13.915,1.118-20.848,1.85c-6.938,0.731-13.86,1.599-20.768,2.576
				c-13.628,1.928-27.189,4.325-40.646,7.222c-3.808,0.82-7.608,1.675-11.4,2.563c-3.317,0.778-6.676,1.522-9.935,2.541
				c0.009-0.121,0.016-0.242,0.025-0.362c0.265-0.241,0.529-0.483,0.795-0.724C116.855,466.036,133.869,459.166,151.672,454.564z
				 M158.545,425.717c3.04-10.152,4.996-20.572,7.133-30.94c2.168-10.519,4.706-20.938,7.635-31.271
				c1.647-5.812,3.393-11.604,5.227-17.359c0.037-0.117-0.162-0.188-0.205-0.071c-3.688,10.025-6.867,20.217-9.577,30.551
				c-2.706,10.317-4.875,20.752-7.314,31.133c-1.402,5.971-2.942,11.921-4.776,17.775c-0.059,0.188-0.042,0.345,0.002,0.486
				c-0.057,0.098-0.115,0.195-0.172,0.293c-0.522-6.292-0.86-12.556-0.63-18.884c0.253-6.987,1.075-13.965,2.418-20.826
				c2.668-13.632,7.469-26.789,14.257-38.91c3.419-6.104,7.339-11.925,11.7-17.396c-2.755,12.934-3.269,26.209-4.666,39.333
				c-1.437,13.493-4.243,26.646-10.162,38.932c-2.855,5.928-6.328,11.533-10.293,16.776
				C158.931,425.465,158.738,425.591,158.545,425.717z M181.507,418.864c8.018-2.478,16.213-4.423,24.515-5.661
				c16.112-2.401,32.696-2.079,48.538,1.889c4.421,1.107,8.774,2.493,13.006,4.188c2.08,0.832,4.156,1.714,6.154,2.728
				c1.495,0.758,3.033,1.695,3.941,3.114c-7.475-1.082-15.24-0.826-22.737-0.347c-8,0.512-15.961,1.476-23.935,2.281
				c-16.268,1.646-32.513,1.706-48.841,1.205c-6.509-0.2-13.017-0.425-19.525-0.644c1.045-0.187,2.09-0.378,3.134-0.559
				c3.058-0.528,6.111-1.08,9.171-1.598c6.123-1.035,12.264-1.964,18.409-2.861c6.15-0.897,12.315-1.692,18.484-2.442
				c6.134-0.746,12.298-1.22,18.481-1.076c3.47,0.081,6.935,0.34,10.378,0.773c3.492,0.44,6.898,1.266,10.366,1.809
				c0.454,0.071,0.57-0.556,0.143-0.688c-2.944-0.918-6.104-1.351-9.151-1.793c-2.957-0.429-5.933-0.728-8.916-0.901
				c-6.162-0.359-12.284-0.037-18.426,0.467c-12.536,1.026-25.029,2.732-37.429,4.823c-3.444,0.581-6.892,1.164-10.319,1.84
				c-2.465,0.486-4.972,0.922-7.414,1.56c0.004-0.006,0.009-0.012,0.014-0.018C166.826,424.117,174.032,421.174,181.507,418.864z"/>
			<g clip-path="url(#SVGID_2_)">
				<path fill="#774436" d="M85.395,180.509c7.924,0.628,15.909,0.511,23.808-0.382c7.924-0.897,15.742-2.465,23.575-3.924
					c4.394-0.818,8.798-1.597,13.23-2.18c2.247-0.296,4.501-0.543,6.76-0.733c2.252-0.189,4.553-0.118,6.791-0.382
					c0.494-0.058,0.925-0.534,0.847-1.048c-1.671-10.921-5.664-21.497-11.877-30.648c-3.104-4.572-6.775-8.737-10.88-12.434
					c-4.436-3.995-10.244-7.125-13.153-12.528c-1.49-2.768-2.37-6.42-0.863-9.368c1.384-2.708,4.615-4.503,7.611-3.485
					c0.87,0.296,1.729-0.457,1.421-1.364c-3.865-11.378-7.677-22.739-12.619-33.711c-2.361-5.243-4.82-10.473-7.596-15.511
					c-2.369-4.301-5.282-8.815-9.768-11.148c-4.374-2.274-8.889-1.162-13.107,0.849c-2.075,0.989-4.102,2.103-6.279,2.86
					c-2.75,0.956-5.628,1.06-8.465,0.433c-5.732-1.268-10.829-4.862-15.586-8.134c-4.559-3.134-9.312-6.854-10.635-12.52
					c-0.716-3.065-0.205-6.158,1.688-8.7c1.803-2.421,4.336-4.255,6.781-5.98c4.72-3.331,10.974-6.78,16.767-4.087
					c0.778,0.362,1.814-0.521,1.406-1.35C66.946-11.803,51.099-23.884,32.824-28.01c-18.591-4.197-38.098,0.95-53.22,12.269
					C-27.408-10.494-33.66-4.292-39.447,2.263c-0.794,0.9-1.59,1.804-2.385,2.71c-6.659-7.845-13.033-15.934-19.076-24.263
					c-1.366-1.883-2.714-3.778-4.048-5.683c-0.86-1.228-2.735,0.154-1.875,1.38C-59.487-13.122-51.644-3.01-43.353,6.722
					c-4.433,5.124-8.72,10.42-12.161,16.238c-4.766,8.058-8.24,16.853-10.309,25.982c-4.061,17.914-2.328,36.731,5.298,53.465
					c7.245,15.898,19.251,29.66,34.134,38.837c3.702,2.283,7.619,4.243,11.645,5.887c4.089,1.67,8.824,3.602,12.624,0.277
					c3.735-3.267,5.743-8.436,7.862-12.795c2.133-4.39,4.573-8.848,8.602-11.787c3.938-2.873,8.795-3.199,13.141-1.043
					c4.183,2.075,7.489,5.871,9.683,9.932c4.563,8.449,5.775,18.65,3.625,27.979c-0.544,2.359-1.329,4.646-2.303,6.862
					c-0.26,0.59,0.047,1.233,0.6,1.509c3.61,1.803,7.463,3.243,11.239,4.659c3.652,1.369,7.368,2.561,11.13,3.587
					C69.277,178.442,77.314,179.869,85.395,180.509z M-39.885,6.693c3.313-3.829,6.14-7.862,9.672-11.498
					c3.531-3.636,7.302-7.048,11.375-10.07c6.22-4.616,13.143-8.254,20.563-10.509c17.699-5.377,37.057-2.338,52.329,8.097
					C61.687-12.072,68.241-4.902,72.24,3.476c-4.207-1.096-8.679,0.503-12.455,2.632c-2.507,1.414-4.865,3.118-7.093,4.938
					c-2.026,1.655-3.924,3.514-5.163,5.845c-2.586,4.866-0.923,10.581,2.202,14.764c3.442,4.608,8.684,7.865,13.483,10.89
					c4.838,3.049,10.355,5.799,16.242,5.322c5.158-0.418,9.185-3.756,13.913-5.448c12.441-4.452,18.963,11.781,23.068,20.46
					c5.727,12.106,10.773,24.892,13.771,37.981c-4.731-0.72-9.153,4.002-9.408,8.658c-0.353,6.428,4.531,11.341,9.234,14.971
					c2.583,1.993,5.241,3.875,7.679,6.051c2.232,1.994,4.3,4.185,6.218,6.48c3.874,4.636,7.188,9.808,9.606,15.35
					c2.509,5.751,4.154,11.759,4.798,17.981c-14.202-13.93-28.887-27.398-44.256-40.033c-15.721-12.923-32.301-24.549-49.383-35.591
					C48.104,84.001,31.6,73.226,16.093,60.951C1.471,49.375-12.375,36.792-25.284,23.332c-5.098-5.315-10.045-10.775-14.847-16.359
					C-40.049,6.879-39.967,6.787-39.885,6.693z M65.477,175.692c-4.459-1.122-8.853-2.5-13.158-4.115
					c-3.908-1.467-7.592-3.274-11.313-5.123c3.361-8.419,3.888-17.863,1.491-26.612c-2.272-8.292-7.585-17.464-16.256-20.265
					c-4.096-1.323-8.335-0.701-11.932,1.646c-3.783,2.468-6.392,6.344-8.435,10.289c-2.417,4.668-4.228,9.875-7.783,13.848
					c-2.014,2.252-4.462,2.935-7.372,2.138c-2.177-0.596-4.287-1.582-6.333-2.525c-15.968-7.363-29.461-19.736-38.42-34.84
					c-9.262-15.614-13.204-33.955-11.052-51.99c0.301-2.521,0.716-5.029,1.242-7.514c0.739-3.494,1.696-6.941,2.856-10.319
					c1.161-3.376,2.525-6.682,4.08-9.896c1.555-3.215,3.301-6.337,5.224-9.347c2.926-4.58,6.47-8.366,10.024-12.359
					c3.283,3.804,6.631,7.552,10.054,11.232c12.692,13.646,26.303,26.42,40.748,38.196c15.132,12.337,31.232,23.209,47.708,33.656
					c8.749,5.547,17.525,11.055,26.093,16.879c8.303,5.645,16.377,11.625,24.262,17.839c15.821,12.467,30.769,25.94,45.448,39.72
					c1.676,1.574,3.346,3.155,5.012,4.739c-1.256,0.02-2.522,0.126-3.756,0.209c-1.96,0.132-3.915,0.321-5.864,0.565
					c-3.908,0.489-7.792,1.151-11.661,1.877c-7.763,1.457-15.48,3.179-23.297,4.337C97.275,180.299,80.989,179.596,65.477,175.692z"
					/>
				<path fill="#774436" d="M-14.579,108.072c1.401-1.938,1.955-4.282,2.163-6.629c0.222-2.503,0.227-5.086,0.031-7.591
					c-0.004-0.048-0.01-0.096-0.014-0.144c-0.152-7.089-1.41-14.353-5.026-20.496c-1.899-3.226-4.734-6.972-8.962-6.293
					c-4.119,0.662-6.54,4.395-7.674,8.102c-2.546,8.326-1.911,17.782,1.683,25.705c1.672,3.686,4.11,7.492,7.711,9.545
					C-21.075,112.317-17.002,111.423-14.579,108.072z M-30.158,101.408c-3.469-6.945-4.62-15.03-3.261-22.667
					c0.656-3.681,1.852-8.18,5.56-9.906c4.093-1.904,7.056,1.47,9.146,4.599c1.494,2.235,2.616,4.637,3.453,7.136
					c0.835,3.359,1.357,6.827,1.549,10.268c0.223,3.983,0.326,8.239-0.543,12.153c-0.789,3.554-3.437,7.574-7.633,6.622
					C-25.749,108.737-28.499,104.73-30.158,101.408z"/>
				<path fill="#774436" d="M90.25,96.714c3.276,0.432,6.626,0.368,9.867-0.29c2.776-0.563,5.746-1.383,7.885-3.341
					c2.113-1.934,3.314-5.296,1.638-7.9c-1.55-2.409-4.656-3.202-7.406-3.611c-4.514-1.679-9.346-2.445-14.18-2.11
					c-2.929,0.203-6.152,0.72-8.508,2.618c-2.006,1.616-3.313,4.231-2.734,6.825C78.024,94.342,85.61,96.103,90.25,96.714z
					 M83.721,92.877c-1.895-0.735-4.005-1.834-4.871-3.789c-1.055-2.383,0.504-4.931,2.479-6.253
					c2.125-1.422,4.823-1.835,7.317-2.067c6.243-0.58,12.551,0.576,18.158,3.381c0.008,0.004,0.013-0.002,0.021,0.001
					c0.467,0.42,0.882,0.909,1.208,1.51c1.322,2.441,0.242,4.993-1.933,6.504c-2.031,1.411-4.665,1.961-7.071,2.313
					c-2.582,0.378-5.211,0.467-7.807,0.193C88.657,94.401,86.128,93.812,83.721,92.877z"/>
			</g>
			<path clip-path="url(#SVGID_2_)" fill="#774436" d="M630.361,364.144c3.825,7.299,9.68,13.012,16.311,17.79
				c6.589,4.749,13.797,8.929,21.616,11.257c7.503,2.232,15.428,2.519,23.192,1.982c7.655-0.527,15.341-1.673,22.71-3.85
				c5.575-1.646,10.997-3.888,15.868-7.015c-10.279,10.148-24.382,15.695-37.593,21.172c-15.886,6.585-31.031,14.61-45.796,23.405
				c-8.399,5.003-16.709,10.174-24.923,15.474c-0.652,0.422-0.19,1.396,0.513,1.354c16.563-1.029,32.558-5.968,47.432-13.188
				c7.501-3.641,14.736-7.816,21.747-12.325c7.722-4.966,15.274-10.263,22.327-16.146c6.83-5.699,13.167-12.034,18.467-19.18
				c-3.564,7.864-9.214,14.664-14.332,21.573c-6.523,8.804-12.239,18.173-18.804,26.946c-3.805,5.083-7.905,9.957-12.542,14.305
				c-0.672,0.63-0.174,1.887,0.82,1.512c10.366-3.915,19.643-11.225,26.8-19.579c7.45-8.696,12.811-18.996,16.49-29.801
				c2.082-6.116,3.549-12.381,4.595-18.753c0.005-0.029,0-0.054-0.003-0.08c0.319-0.407,0.631-0.821,0.938-1.24
				c0.668-0.48,1.313-1.004,1.926-1.579c0.207-0.194,0.295-0.432,0.299-0.665c10.37-8.491,20.474-17.383,30.18-26.588
				c0.393-0.373,0.78-0.752,1.173-1.126c0.027-0.012,0.056-0.025,0.084-0.037c-7.213,11.252-14.24,22.932-18.853,35.49
				c-4.428,12.055-7.091,24.628-10.884,36.877c-2.18,7.039-4.785,13.938-8.235,20.46c-0.322,0.607,0.516,1.316,1.052,0.863
				c10.623-8.988,19.404-20.01,25.923-32.299c6.542-12.335,10.805-25.91,12.399-39.785c0.771-6.699,0.931-13.479,0.287-20.197
				c-0.042-0.439-0.135-0.893-0.127-1.335c0.001-0.091,0.018-0.177,0.042-0.264c0.075-0.273,0.132-0.552,0.22-0.821
				c0.202-0.618,0.524-1.197,0.943-1.695c0.223-0.265,0.478-0.483,0.734-0.711c0.279-0.246,0.537-0.522,0.804-0.783
				c0.535-0.522,1.068-1.047,1.601-1.572c1.065-1.052,2.125-2.108,3.179-3.17c1.054-1.063,2.102-2.131,3.143-3.205
				s2.076-2.154,3.104-3.241c1.027-1.087,2.049-2.181,3.063-3.281c1.013-1.101,2.019-2.207,3.016-3.322
				c0.997-1.114,1.986-2.236,2.967-3.366c0.979-1.13,1.951-2.268,2.913-3.413s1.914-2.299,2.856-3.461
				c0.702-0.866,1.398-1.736,2.088-2.612c1.035-1.312,2.045-2.644,3.052-3.978c-0.008,0.264-0.016,0.528-0.02,0.793
				c-4.488,10.899-8.69,21.938-11.631,33.364c-1.677,6.516-2.911,13.127-3.604,19.82c-0.678,6.541-0.942,13.114-1.361,19.675
				c-0.474,7.413-1.158,14.825-2.848,22.072c-0.16,0.688,0.804,1.088,1.224,0.561c8.49-10.666,14.775-23.12,18.725-36.144
				c3.998-13.184,5.604-27.137,4.576-40.88c-0.484-6.477-1.518-12.943-3.243-19.211c0.527-1.272,1.056-2.546,1.588-3.816
				c0.103-0.247,0.04-0.51-0.104-0.709c0.625-0.865,1.264-1.72,1.876-2.594c2.629-3.748,5.229-7.575,7.27-11.681
				c0.298-0.6-0.589-1.166-0.999-0.625c-3.877,5.123-7.422,10.478-11.214,15.663c-0.162,0.042-0.308,0.154-0.382,0.316
				c-23.527-2.388-47.425-0.509-70.305,5.463c-6.516,1.701-13.101,3.599-19.303,6.244c-0.73,0.312-0.633,1.377,0.151,1.538
				c6.15,1.262,12.273,2.525,18.523,3.2c6.155,0.665,12.361,0.901,18.55,0.715c12.512-0.378,25.304-2.328,37.068-6.705
				c4.104-1.526,8.081-3.405,11.814-5.682c-4.789,6.053-9.833,11.909-15.058,17.588c-5.423,5.894-11.062,11.573-16.816,17.137
				c-25.383-6.006-51.81-5.508-77.558-2.353c-3.672,0.449-7.332,0.978-10.994,1.496c-3.721,0.527-7.49,0.966-11.245,0.565
				c-0.887-0.095-1.324,1.115-0.474,1.522c12.316,5.898,25.964,8.523,39.522,9.378c13.657,0.86,27.708,0.461,41.188-2.009
				c4.969-0.91,9.851-2.173,14.595-3.849c-4.476,4.235-9.004,8.415-13.542,12.58c-4.451,4.086-8.97,8.102-13.444,12.163
				c-0.188-0.023-0.392,0.028-0.586,0.209c-0.514,0.482-1.045,0.916-1.585,1.324c-0.054,0.035-0.108,0.059-0.159,0.107
				c-0.038,0.036-0.079,0.068-0.117,0.104c-10.192,7.422-24.72,2.594-35.877,0.051c-14.415-3.285-28.829-6.57-43.243-9.855
				c-8.249-1.881-16.496-3.899-24.811-5.467C630.713,362.901,630.056,363.561,630.361,364.144z M724.698,407.157
				c2.139-3.521,4.019-7.222,5.58-11.034c0.699-1.708,1.418-3.523,2.015-5.377c-5.158,18.398-13.936,36.125-29.351,47.974
				c-3.816,2.934-7.854,5.278-12.17,7.211c6.864-7.163,12.506-15.394,18.014-23.63c3.188-4.769,6.351-9.558,9.729-14.195
				c3.082-4.229,6.335-8.336,9.269-12.673c1.089-1.61,2.119-3.257,3.083-4.937c-0.544,1.784-1.156,3.55-1.842,5.284
				c-1.466,3.708-3.255,7.266-5.219,10.731c-4.095,7.228-9.003,13.941-14.153,20.445c-0.063,0.079,0.056,0.176,0.121,0.1
				C715.183,420.767,720.385,414.259,724.698,407.157z M733.22,387.281c0.137-0.673,0.232-1.345,0.305-2.015
				c0.136-0.305,0.287-0.603,0.417-0.91C733.711,385.332,733.469,386.307,733.22,387.281z M758.519,393.064
				c3.222-8.615,5.945-17.419,8.397-26.282c0.698-2.521,1.38-5.047,2.054-7.575c0.422-1.579,0.851-3.151,1.2-4.741
				c0.344,11.571-0.855,23.096-4.011,34.295c-3.714,13.184-9.878,25.705-18.118,36.648c-3.965,5.266-8.411,10.152-13.289,14.578
				c4.956-10.411,7.833-21.679,10.807-32.783c1.675-6.256,3.374-12.513,5.497-18.635c2.254-6.499,5.171-12.688,8.501-18.7
				c2.713-4.899,5.546-9.729,8.482-14.496c-0.81,2.865-1.418,5.81-2.157,8.665c-1.175,4.536-2.375,9.068-3.653,13.577
				c-2.559,9.018-5.449,17.954-9.028,26.621c-1.981,4.799-4.074,9.591-6.515,14.175c-0.005,0.009,0.009,0.015,0.014,0.006
				C751.332,410.262,755.233,401.852,758.519,393.064z M806.04,323.919c0.199-2.467,0.366-4.937,0.501-7.407
				c0.027-0.504,0.063-1.013,0.098-1.521c2.28,10.896,3.084,22.012,2.082,33.164c-1.207,13.431-4.82,26.638-10.702,38.775
				c-2.912,6.01-6.392,11.661-10.36,17.006c2.264-11.92,2.228-24.114,3.284-36.179c1.177-13.445,4.52-26.415,9.083-39.091
				c1.582-4.395,3.287-8.743,5.044-13.071c-0.071,2.248-0.168,4.496-0.295,6.741c-0.253,4.502-0.614,8.997-1.084,13.481
				c-0.938,8.961-2.31,17.878-4.079,26.712c-1.002,5.002-2.101,9.982-3.337,14.932c-0.008,0.029,0.038,0.036,0.046,0.008
				C801.377,360.002,804.573,342.042,806.04,323.919z M772.824,321.123c-12.061,2.274-24.439,2.855-36.66,1.726
				c-5.944-0.55-11.95-1.394-17.744-2.908c4.824-1.589,9.624-3.223,14.53-4.568c5.782-1.585,11.637-2.898,17.539-3.944
				c11.629-2.06,23.44-3.083,35.25-3.046c5.291,0.018,10.576,0.28,15.847,0.729c-0.246,0.096-0.49,0.2-0.742,0.281
				c-1.896,0.608-3.843,1.068-5.783,1.507c-3.841,0.868-7.713,1.627-11.607,2.212c-7.717,1.158-15.528,1.774-23.313,2.266
				c-4.465,0.281-8.93,0.55-13.396,0.797c-0.082,0.005-0.067,0.125,0.012,0.125c16.116-0.104,32.408-0.315,48.254-3.6
				c1.699-0.352,3.397-0.738,5.076-1.186C791.77,316.434,782.311,319.334,772.824,321.123z M731.742,356.259
				c-13.347,0.752-27.032,0.566-40.167-2.149c-6.106-1.263-12.084-3.099-17.802-5.573c5.114-0.051,10.232-1.092,15.28-1.745
				c6.568-0.851,13.158-1.538,19.766-2c13.091-0.914,26.267-0.952,39.326,0.442c5.561,0.594,11.085,1.48,16.558,2.625
				c-1.032,0.094-2.059,0.212-3.04,0.266c-2.567,0.143-5.136,0.272-7.705,0.391c-4.977,0.229-9.955,0.41-14.935,0.546
				c-10.106,0.275-20.227,0.54-30.336,0.555c-0.152,0-0.124,0.229,0.022,0.232c10.147,0.334,20.275,0.548,30.429,0.386
				c4.984-0.08,9.969-0.206,14.951-0.378c2.571-0.089,5.143-0.189,7.713-0.304c1.653-0.072,3.445-0.001,5.158-0.167
				C755.767,353.751,743.702,355.584,731.742,356.259z M724.306,391.445c-0.307,0.29-0.604,0.588-0.929,0.866
				c-1.977,1.695-4.082,3.233-6.216,4.723c-4.269,2.979-8.581,5.896-12.964,8.705c-8.904,5.706-18.044,11.065-27.382,16.03
				c-5.215,2.773-10.488,5.435-15.845,7.924c-0.09,0.042-0.036,0.187,0.057,0.146c19.528-8.625,38.397-18.786,55.888-31.066
				c1.283-0.901,2.56-1.815,3.81-2.763c-8.221,8.084-17.664,14.989-27.248,21.328c-13.758,9.098-28.444,17.065-44.229,22.026
				c-7.859,2.47-15.932,4.122-24.141,4.69c14.11-8.637,28.101-17.461,42.764-25.152c7.669-4.023,15.495-7.719,23.49-11.047
				c7.953-3.312,16.016-6.425,23.605-10.531C718.2,395.575,721.342,393.625,724.306,391.445z M653.324,369.941
				c7.446,1.713,14.901,3.392,22.352,5.087c7.45,1.696,14.9,3.392,22.352,5.088c6.855,1.561,13.798,3.53,20.848,3.921
				c1.886,0.104,3.796,0.067,5.684-0.133c-0.093,0.035-0.182,0.077-0.274,0.111c-2.246,0.823-4.557,1.471-6.898,1.955
				c-4.763,0.984-9.641,1.327-14.498,1.272c-9.928-0.113-20.017-1.668-29.668-3.943c-5.667-1.336-11.25-3.008-16.618-5.273
				c-0.12-0.051-0.204,0.13-0.085,0.185c9.396,4.321,19.433,6.735,29.613,8.35c9.998,1.586,20.295,2.789,30.368,1.176
				c2.578-0.412,5.134-1.002,7.621-1.797c0.201-0.064,0.405-0.131,0.608-0.197c-9.129,4.832-19.661,7.001-29.921,8.032
				c-7.562,0.761-15.271,0.894-22.738-0.702c-7.959-1.7-15.246-5.494-21.923-10.055c-6.871-4.693-13.688-10.374-17.482-17.923
				C639.507,366.87,646.435,368.355,653.324,369.941z"/>
			<path clip-path="url(#SVGID_2_)" fill="#B78372" d="M132.591,272.542c-17.105,0.926-34.166,3.169-50.926,6.716
				c-8.395,1.775-16.728,3.854-24.963,6.267c-4.195,1.229-8.365,2.544-12.507,3.942c-3.813,1.289-7.724,2.511-11.422,4.104
				c-1.605,0.692-3.166,1.643-4.05,3.206c-0.851,1.505-1.021,3.262-1.14,4.953c-0.317,4.512-0.478,9.037-0.583,13.56
				c-3.351-2.715-6.147-6.035-8.386-9.726c-0.24-0.396-0.678-0.446-1.072-0.277c-9.375,4.029-18.422,8.893-26.883,14.602
				c-8.121,5.479-16.104,11.571-22.821,18.734c-6.34,6.763-11.106,14.69-13.48,23.688c-2.321,8.797-2.472,18.104-0.537,26.986
				c2.014,9.245,6.2,17.818,11.945,25.274c-9.323,10.841-17.755,22.515-24.469,35.146c-0.932,1.754-1.828,3.526-2.693,5.313
				c-0.581,1.199,1.235,2.222,1.814,1.015c6.943-14.492,16.164-27.74,26.542-39.971c0.582,0.714,1.173,1.421,1.784,2.112
				c0.046,0.052,0.096,0.081,0.146,0.11c3.471,4.443,9.103,6.87,14.733,7.156c3.961,0.2,7.919-0.413,11.782-1.236
				c3.918-0.836,7.801-1.851,11.628-3.035c7.48-2.317,14.776-5.32,21.604-9.168c3.394-1.912,6.671-4.036,9.782-6.384
				c2.829-2.134,6.01-4.418,8.128-7.295c4.311-5.856,1.18-12.928-2.132-18.567c4.837,0.704,9.726,1.212,14.591,1.573
				c2.592,0.191,4.662-0.192,6.592-2.018c1.704-1.611,3.252-3.424,4.843-5.146c6.607-7.156,13.019-14.497,19.128-22.086
				c12.115-15.05,23.107-31.098,31.769-48.396c4.849-9.685,8.98-19.746,12.073-30.13
				C133.558,273.063,133.105,272.514,132.591,272.542z M87.419,279.316c1.223-0.231,2.448-0.452,3.674-0.669
				c-3.189,8.588-5.472,18.316-2.826,27.311c-0.087,0.065-0.174,0.13-0.261,0.196c-1.425,1.082-2.835,2.185-4.255,3.275
				c-1.057-5.195-0.606-10.498,0.024-15.739c0.311-2.583,0.715-5.154,1.212-7.708C85.433,283.703,85.973,281.202,87.419,279.316z
				 M17.657,306.952c2.6,3.972,5.837,7.456,9.535,10.436c0.537,0.433,1.273,0.138,1.316-0.564c0.256-4.229,0.435-8.459,0.558-12.693
				c0.052-1.799-0.097-3.714,0.342-5.476c0.475-1.909,1.942-3.044,3.651-3.842c3.66-1.709,7.638-2.916,11.457-4.213
				c3.91-1.328,7.845-2.581,11.802-3.757c9.833-2.922,19.805-5.354,29.872-7.298c-1.173,1.489-1.771,3.233-2.197,5.149
				c-0.654,2.942-1.134,5.931-1.512,8.92c-0.362,2.861-0.639,5.744-0.748,8.628c-0.1,2.669,0.004,5.47,0.985,7.983
				c-12.524,9.639-24.854,19.534-36.984,29.663c-13.919,11.622-27.546,23.578-40.968,35.77c-1.344,1.221-2.679,2.452-4.018,3.679
				c-3.367-7.118-4.6-14.973-5.438-22.746c-0.886-8.22-1.393-16.479-1.518-24.746c-0.062-4.082-0.146-8.165,0.607-12.183
				C1.836,314.874,9.601,310.618,17.657,306.952z M-10.497,322.91c1.304-0.898,2.622-1.775,3.947-2.64
				c-0.578,3.111-0.71,6.282-0.73,9.45c-0.027,4.313,0.132,8.635,0.36,12.941c0.442,8.364,1.051,16.853,2.707,25.076
				c0.866,4.301,2.133,8.499,4.016,12.464c-2.816,2.589-5.622,5.188-8.397,7.82c-1.148-3.787-2.407-7.531-3.368-11.378
				c-1.067-4.271-1.903-8.596-2.563-12.948c-1.247-8.23-2.227-16.613-1.984-24.951c0.125-4.299,0.788-8.455,1.544-12.66
				C-13.485,325.006-11.995,323.943-10.497,322.91z M-44.73,365.069c1.991-8.962,6.334-17.002,12.461-23.812
				c4.754-5.283,10.242-9.94,15.971-14.202c-0.806,3.091-1.142,6.345-1.317,9.497c-0.231,4.15-0.092,8.313,0.229,12.454
				c0.677,8.745,1.816,17.53,3.65,26.11c1.001,4.686,2.171,9.478,4.129,13.875c-7.178,6.84-14.179,13.863-20.809,21.235
				c-0.99,1.102-1.962,2.222-2.936,3.341C-43.392,399.666-48.509,382.073-44.73,365.069z M73.092,368.605
				c-1.768,1.959-3.551,3.903-5.349,5.835c-1.686,1.813-3.596,4.724-6.216,5.056c-1.471,0.187-3.027-0.081-4.496-0.212
				c-1.532-0.137-3.063-0.286-4.593-0.449c-3.221-0.343-6.424-0.795-9.636-1.204c-0.717-0.092-1.561,0.662-1.041,1.398
				c3.307,4.684,7.57,11.607,4.055,17.292c-1.794,2.9-4.954,5.157-7.621,7.207c-2.914,2.239-5.982,4.278-9.157,6.127
				c-6.188,3.604-12.777,6.477-19.563,8.746c-6.92,2.314-14.283,4.438-21.579,5.061c-6.388,0.544-13.961-0.616-18.21-5.754
				c-0.008-0.117-0.04-0.235-0.131-0.345c-0.311-0.375-0.615-0.755-0.918-1.136c-0.142-0.23-0.292-0.452-0.423-0.696
				c-0.074-0.138-0.182-0.208-0.297-0.229c-0.047-0.062-0.09-0.126-0.137-0.188c10.366-12.101,21.715-23.285,33.373-34.133
				c13.135-12.224,26.603-24.094,40.3-35.684c3.684-3.117,7.389-6.209,11.109-9.282c5.636,3.86,12.681,5.902,19.252,7.443
				c3.528,0.826,7.095,1.529,10.667,2.143c3.07,0.526,6.334,1.009,9.465,0.61C85.95,353.913,79.627,361.362,73.092,368.605z
				 M92.907,344.958c-7.037,0.759-14.238-0.89-21.058-2.55c-3.273-0.797-6.516-1.739-9.681-2.897
				c-3.088-1.13-6.012-2.58-8.954-4.028c2.129-1.757,4.268-3.503,6.408-5.246c0.043,0.046,0.091,0.089,0.159,0.122
				c6.041,2.93,12.335,5.322,18.808,7.107c3.286,0.906,6.619,1.671,9.98,2.246c2.388,0.408,5.242,0.923,7.807,0.657
				C95.231,341.907,94.078,343.439,92.907,344.958z M107.808,323.872c-3.303,5.17-6.8,10.208-10.434,15.145
				c-1.399,0.031-2.79,0.185-4.203,0.099c-1.751-0.105-3.489-0.373-5.213-0.687c-3.133-0.568-6.24-1.285-9.31-2.132
				c-6.23-1.72-12.286-4.011-18.111-6.809c7.613-6.186,15.298-12.281,23.06-18.279c14.289-11.041,28.782-21.816,43.476-32.313
				c1.205-0.86,2.427-1.696,3.652-2.528C125.152,293.124,117.314,308.991,107.808,323.872z M131.263,274.784
				c-14.055,10.021-28.148,19.949-41.919,30.363c-2.443-9.004,0.402-17.829,2.469-26.63c4.317-0.755,8.651-1.423,12.998-1.996
				c8.834-1.163,17.731-1.881,26.633-2.27C131.387,274.431,131.321,274.606,131.263,274.784z"/>
		</g>
	</g>
</g>
<g id="OBJECTS">
</g>
</svg>
